# xmcd CD database file
#
# Track frame offsets:
#	150
#	40825
#	68387
#	96467
#	131482
#	159782
#
# Disc length: 2394 seconds
#
# Revision: 0
# Processed by: cddbd v1.5.2PL0 Copyright (c) Steve Scherf et al.
# Submitted via: CDex 1.70beta3
#
DISCID=41095806
DTITLE=Miles Davis - Steamin'
DYEAR=1956
DGENRE=Jazz
TTITLE0=Surrey with the Fringe on Top
TTITLE1=Salt Peanuts
TTITLE2=Something I Dreamed Last Night
TTITLE3=Diane
TTITLE4=Well You Needn't
TTITLE5=When I Fall in Love
EXTD=YEAR: 1956
EXTT0=
EXTT1=
EXTT2=
EXTT3=
EXTT4=
EXTT5=
PLAYORDER=
